<svg xmlns="http://www.w3.org/2000/svg" style="display:none">
  <!-- Settings (gear) -->
  <symbol id="settings" viewBox="0 0 24 24">
    <path d="M12 15.5a3.5 3.5 0 1 0 0-7 3.5 3.5 0 0 0 0 7Z" />
    <path d="M19.4 12.98c.04-.32.06-.66.06-.98s-.02-.66-.06-.98l2.02-1.58a.6.6 0 0 0 .14-.76l-1.91-3.3a.6.6 0 0 0-.73-.27l-2.38.96a7.77 7.77 0 0 0-1.7-.99l-.37-2.51a.6.6 0 0 0-.59-.49h-3.82a.6.6 0 0 0-.59.49l-.37 2.51c-.6.25-1.17.58-1.7.99l-2.38-.96a.6.6 0 0 0-.73.27L2.44 8.68a.6.6 0 0 0 .14.76l2.02 1.58c-.04.32-.06.66-.06.98s.02.66.06.98L2.58 14.6a.6.6 0 0 0-.14.76l1.91 3.3c.14.24.44.34.72.24l2.38-.96c.53.41 1.1.74 1.7.99l.37 2.51c.07.28.31.49.59.49h3.82c.28 0 .52-.21.59-.49l.37-2.51c.6-.25 1.17-.58 1.7-.99l2.38.96c.27.11.58 0 .72-.24l1.91-3.3a.6.6 0 0 0-.14-.76l-2.02-1.62Z" />
  </symbol>

  <!-- Logout (arrow right from box) -->
  <symbol id="logout" viewBox="0 0 24 24">
    <path d="M9 21H5a2 2 0 0 1-2-2V5a2 2 0 0 1 2-2h4" />
    <polyline points="16 17 21 12 16 7" />
    <line x1="21" y1="12" x2="9" y2="12" />
  </symbol>

  <!-- GitHub mark -->
  <symbol id="github" viewBox="0 0 24 24">
    <path d="M12 .5C5.73.5.77 5.46.77 11.73c0 4.94 3.2 9.13 7.64 10.61.56.1.77-.24.77-.54 0-.27-.01-1.16-.02-2.1-3.11.68-3.77-1.33-3.77-1.33-.51-1.29-1.25-1.64-1.25-1.64-1.02-.7.08-.69.08-.69 1.13.08 1.73 1.16 1.73 1.16 1 .1.78 1.73 2.68 2.17.56-.38 1.09-.7 1.34-.86-2.48-.28-5.09-1.24-5.09-5.52 0-1.22.43-2.22 1.15-3-.12-.28-.5-1.42.11-2.96 0 0 .96-.31 3.14 1.15a10.9 10.9 0 0 1 2.86-.38c.97 0 1.95.13 2.86.38 2.18-1.46 3.14-1.15 3.14-1.15.61 1.54.24 2.68.12 2.96.72.78 1.15 1.78 1.15 3 0 4.3-2.62 5.23-5.12 5.51.41.35.77 1.04.77 2.11 0 1.52-.02 2.74-.02 3.11 0 .3.2.65.78.54 4.43-1.49 7.63-5.68 7.63-10.61C23.23 5.46 18.27.5 12 .5z" />
  </symbol>

  <!-- Clock -->
  <symbol id="clock" viewBox="0 0 24 24">
    <circle cx="12" cy="12" r="9" />
    <polyline points="12 6 12 12 16 14" />
  </symbol>

  <!-- Skip forward -->
  <symbol id="skip-forward" viewBox="0 0 24 24">
    <polygon points="5 4 15 12 5 20 5 4" />
    <line x1="19" y1="5" x2="19" y2="19" />
  </symbol>

  <!-- No repeats (custom path) -->
  <symbol id="no-repeats" viewBox="0 0 24 24">
    <g transform="translate(0, 3.5217) scale(0.26087) translate(-55, -67)">
      <path
        d="M 132.399 68.403 C 131.855 69.820, 136.374 74.889, 138.250 74.968 C 138.662 74.986, 139 75.353, 139 75.785 C 139 76.217, 135.497 77.040, 131.217 77.613 C 126.936 78.186, 120.919 79.806, 117.847 81.213 C 112.423 83.696, 104 90.328, 104 92.116 C 104 94.035, 107.776 92.843, 110.412 90.092 C 114.556 85.766, 123.852 81.980, 132.006 81.296 C 135.898 80.970, 138.988 81.107, 138.972 81.605 C 138.957 82.097, 137.395 83.625, 135.500 85 C 132.114 87.458, 131.174 89.372, 132.848 90.406 C 133.806 90.998, 147 80.436, 147 79.077 C 147 78.241, 136.899 69.160, 134.243 67.608 C 133.506 67.177, 132.743 67.507, 132.399 68.403 M 55.187 78.750 C 55.469 80.227, 57.078 80.594, 65.510 81.106 C 82.526 82.137, 92.350 87.675, 98.871 99.910 C 100.645 103.238, 103.201 107.274, 104.551 108.878 C 110.359 115.781, 124.359 122, 134.089 122 C 136.790 122, 139 122.427, 139 122.949 C 139 123.471, 137.425 125.100, 135.500 126.568 C 132.105 129.157, 130.853 132, 133.108 132 C 134.815 132, 147 121.990, 147 120.589 C 147 119.170, 134.821 109, 133.122 109 C 130.887 109, 132.080 111.567, 135.750 114.657 C 137.812 116.393, 139.180 118.138, 138.790 118.534 C 137.554 119.786, 124.271 117.271, 118.732 114.735 C 111.181 111.278, 107.013 107.233, 102.480 98.963 C 94.423 84.264, 80.993 77, 61.877 77 C 55.727 77, 54.895 77.218, 55.187 78.750 M 89.653 110.563 C 82.511 115.958, 76.334 117.938, 64.250 118.706 C 57.430 119.139, 55 119.649, 55 120.647 C 55 121.684, 57.106 122, 64.032 122 C 76.833 122, 86.028 118.790, 93.750 111.624 C 96.731 108.857, 98.065 105.896, 96.250 106.073 C 95.838 106.114, 92.869 108.134, 89.653 110.563"
        fill="currentColor"
        stroke="currentColor"
        stroke-width="3.8"
        stroke-linejoin="round"
        stroke-linecap="round"
        fill-rule="evenodd"
      />
    </g>
  </symbol>
</svg>

